<?xml version="1.0" encoding="UTF-8" standalone="no"?>
<!-- Created with Inkscape (http://www.inkscape.org/) -->

<svg
   xmlns:dc="http://purl.org/dc/elements/1.1/"
   xmlns:cc="http://creativecommons.org/ns#"
   xmlns:rdf="http://www.w3.org/1999/02/22-rdf-syntax-ns#"
   xmlns:svg="http://www.w3.org/2000/svg"
   xmlns="http://www.w3.org/2000/svg"
   xmlns:sodipodi="http://sodipodi.sourceforge.net/DTD/sodipodi-0.dtd"
   xmlns:inkscape="http://www.inkscape.org/namespaces/inkscape"
   width="200"
   height="200"
   id="svg2"
   version="1.1"
   inkscape:version="0.48.2 r9819"
   sodipodi:docname="logo-pastelbox.svg">
  <defs
     id="defs4" />
  <sodipodi:namedview
     id="base"
     pagecolor="#ffffff"
     bordercolor="#666666"
     borderopacity="1.0"
     inkscape:pageopacity="0.0"
     inkscape:pageshadow="2"
     inkscape:zoom="3.959798"
     inkscape:cx="90.538192"
     inkscape:cy="82.059175"
     inkscape:document-units="px"
     inkscape:current-layer="g3008"
     showgrid="false"
     units="px"
     showguides="false"
     inkscape:guide-bbox="true"
     inkscape:object-nodes="true"
     inkscape:window-width="1358"
     inkscape:window-height="845"
     inkscape:window-x="86"
     inkscape:window-y="16"
     inkscape:window-maximized="0">
    <inkscape:grid
       type="xygrid"
       id="grid2985"
       empspacing="5"
       visible="true"
       enabled="true"
       snapvisiblegridlinesonly="true" />
    <sodipodi:guide
       orientation="0,1"
       position="180,340"
       id="guide2987" />
    <sodipodi:guide
       orientation="0,1"
       position="40,200"
       id="guide2989" />
    <sodipodi:guide
       orientation="1,0"
       position="180,320"
       id="guide2991" />
    <sodipodi:guide
       orientation="1,0"
       position="320,280"
       id="guide2993" />
    <sodipodi:guide
       orientation="1,0"
       position="370,250"
       id="guide2997" />
    <sodipodi:guide
       orientation="0,1"
       position="265,290"
       id="guide2999" />
  </sodipodi:namedview>
  <metadata
     id="metadata7">
    <rdf:RDF>
      <cc:Work
         rdf:about="">
        <dc:format>image/svg+xml</dc:format>
        <dc:type
           rdf:resource="http://purl.org/dc/dcmitype/StillImage" />
        <dc:title />
      </cc:Work>
    </rdf:RDF>
  </metadata>
  <g
     inkscape:label="Layer 1"
     inkscape:groupmode="layer"
     id="layer1"
     transform="translate(0,-852.3622)"
     style="display:none">
    <path
       style="fill:#65bca5;fill-opacity:1;stroke:#ffffff;stroke-width:1px;stroke-linecap:butt;stroke-linejoin:miter;stroke-opacity:1"
       d="m 410,662.3622 c 0,46.66667 0,90 0,135 0,2.05279 1.54244,5 3.59523,5 41.40477,0 136.40477,0 136.40477,0 l 0,-45 c 0,0 2.64298,-5 5,-5 4.71405,0 5.98999,7.52168 10,10 4.48332,2.77085 9.77617,5.69957 15,5 5.95608,-0.79763 12.16449,-4.7018 15,-10 6.29144,-11.75566 6.29144,-28.24434 0,-40 -2.83551,-5.2982 -9.04392,-9.20237 -15,-10 -5.22383,-0.69957 -10.51668,2.22915 -15,5 -4.01001,2.47832 -5.28595,10 -10,10 -2.35702,0 -5,-5 -5,-5 l 0,-55 -55,0 c 0,0 -5,2.64298 -5,5 0,4.71405 7.52168,5.98999 10,10 2.77085,4.48332 5.69957,9.77617 5,15 -0.79763,5.95608 -4.7018,12.16449 -10,15 -11.75566,6.29144 -28.24434,6.29144 -40,0 -5.2982,-2.83551 -9.20237,-9.04392 -10,-15 -0.69957,-5.22383 2.22915,-10.51668 5,-15 2.47832,-4.01001 10,-5.28595 10,-10 0,-2.35702 -5,-5 -5,-5 z"
       id="path2995"
       inkscape:connector-curvature="0"
       sodipodi:nodetypes="cssccaaaaaaaacccaaaaaaaacc" />
    <path
       style="fill:#f4cc5d;fill-opacity:1;stroke:#ffffff;stroke-width:1px;stroke-linecap:butt;stroke-linejoin:miter;stroke-opacity:1"
       d="m 550,802.3622 c 46.66627,-0.19202 89.99924,-0.37033 134.99886,-0.5555 2.05277,-0.008 4.99361,-1.563 4.98516,-3.61577 -0.17037,-41.40442 -0.56128,-136.40361 -0.56128,-136.40361 l -44.99962,0.18516 c 0,0 -5.01083,-2.62238 -5.02053,-4.97938 -0.0194,-4.71401 7.49697,-6.02089 9.95877,-10.04106 2.75238,-4.49469 5.65929,-9.79954 4.93823,-15.02045 -0.82213,-5.95275 -4.75181,-12.14504 -10.06163,-14.95873 -11.78145,-6.24301 -28.26999,-6.17516 -39.99966,0.1646 -5.28649,2.85728 -9.16508,9.0817 -9.9382,15.04102 -0.67807,5.22666 2.27241,10.50741 5.06168,14.9793 2.4948,3.99977 10.02167,5.24475 10.04107,9.95876 0.01,2.357 -4.97939,5.02053 -4.97939,5.02053 l -54.99953,0.22632 0.22631,54.99953 c 0,0 2.66353,4.98909 5.02053,4.97939 4.71401,-0.0194 5.95899,-7.54627 9.95877,-10.04107 4.47188,-2.78927 9.75264,-5.73975 14.9793,-5.06168 5.95931,0.77312 12.18373,4.65171 15.04102,9.9382 6.33976,11.72967 6.40761,28.21821 0.16459,39.99966 -2.81368,5.30982 -9.00597,9.2395 -14.95872,10.06164 -5.22091,0.72105 -10.52577,-2.18586 -15.02045,-4.93824 -4.02017,-2.4618 -5.32705,-9.97816 -10.04106,-9.95877 -2.357,0.01 -4.97939,5.02053 -4.97939,5.02053 z"
       id="path2995-2"
       inkscape:connector-curvature="0"
       sodipodi:nodetypes="cssccaaaaaaaacccaaaaaaaacc" />
    <path
       style="fill:#f46948;fill-opacity:1;stroke:#ffffff;stroke-width:1px;stroke-linecap:butt;stroke-linejoin:miter;stroke-opacity:1"
       d="m 689.99715,661.46984 c -0.29745,-46.66572 -0.57365,-89.99817 -0.86048,-134.99725 -0.0131,-2.05276 -1.57428,-4.99007 -3.62702,-4.97699 -41.40393,0.26392 -136.402,0.86944 -136.402,0.86944 l 0.28683,44.99909 c 0,0 -2.61106,5.01674 -4.96803,5.03176 -4.71396,0.03 -6.03781,-7.48334 -10.06354,-9.93605 -4.50088,-2.74223 -9.8123,-5.63715 -15.03156,-4.90429 -5.95088,0.83557 -12.13427,4.77924 -14.93596,10.0954 -6.21638,11.79552 -6.11128,28.28387 0.25496,39.99918 2.86922,5.28002 9.10239,9.14455 15.06344,9.9042 5.22818,0.66626 10.50225,-2.29614 14.96783,-5.09551 3.99412,-2.50383 5.22209,-10.03349 9.93605,-10.06354 2.35697,-0.015 5.03177,4.96803 5.03177,4.96803 L 550,662.3622 l 54.99889,-0.35057 c 0,0 4.98305,-2.6748 4.96803,-5.03177 -0.0301,-4.71395 -7.55971,-5.94193 -10.06354,-9.93606 -2.79937,-4.46556 -5.76176,-9.73964 -5.09551,-14.96782 0.75965,-5.96105 4.62417,-12.19422 9.90419,-15.06344 11.71531,-6.36624 28.20367,-6.47134 39.99918,-0.25495 5.31618,2.80167 9.25984,8.98507 10.09541,14.93595 0.73286,5.21926 -2.16207,10.53067 -4.90429,15.03156 -2.45271,4.02573 -9.9661,5.34959 -9.93606,10.06354 0.015,2.35698 5.03177,4.96803 5.03177,4.96803 z"
       id="path2995-1"
       inkscape:connector-curvature="0"
       sodipodi:nodetypes="cssccaaaaaaaacccaaaaaaaacc" />
    <path
       style="fill:#146a75;fill-opacity:1;stroke:#ffffff;stroke-width:1px;stroke-linecap:butt;stroke-linejoin:miter;stroke-opacity:1"
       d="m 487.6256,520.35698 c -34.93848,-30.93673 -67.38133,-59.66369 -101.07199,-89.49553 -1.53689,-1.36086 -4.76594,-2.15986 -6.12681,-0.62297 C 352.97834,461.23746 290,532.3622 290,532.3622 l 33.69066,29.83185 c 0,0 1.9913,5.29339 0.42876,7.05805 -3.12508,3.52932 -9.60228,-0.50175 -14.11611,0.85751 -5.04662,1.51966 -10.74808,3.54083 -13.68736,7.91557 -3.35129,4.98799 -4.54405,12.2243 -2.45714,17.85952 4.63047,12.50348 16.97524,23.43431 29.94727,26.51721 5.84641,1.38943 12.88513,-0.67049 17.43076,-4.60092 3.98679,-3.44723 5.3029,-9.35142 6.20055,-14.54488 0.80288,-4.64516 -3.9826,-10.58679 -0.85752,-14.11611 1.56254,-1.76466 7.05806,-0.42876 7.05806,-0.42876 l 41.17748,36.46115 36.46115,-41.17748 c 0,0 1.33589,-5.49552 -0.42877,-7.05805 -3.52931,-3.12509 -9.47089,1.66062 -14.11611,0.8575 -5.19346,-0.89764 -11.09765,-2.21374 -14.54486,-6.20053 -3.93044,-4.54564 -5.99038,-11.58437 -4.60093,-17.43077 3.08289,-12.97202 14.01374,-25.31679 26.51719,-29.94726 5.63523,-2.08691 12.87155,-0.89416 17.85952,2.45714 4.37476,2.93928 6.39589,8.64074 7.91558,13.68736 1.35926,4.51383 -2.67181,10.99102 0.85751,14.11611 1.76466,1.56253 7.05806,-0.42875 7.05806,-0.42875 z"
       id="path2995-10"
       inkscape:connector-curvature="0"
       sodipodi:nodetypes="cssccaaaaaaaacccaaaaaaaacc" />
  </g>
  <g
     inkscape:groupmode="layer"
     id="layer2"
     inkscape:label="Flat Stamps"
     style="display:none"
     transform="translate(0,-565)">
    <path
       style="fill:#efc164;fill-opacity:1;stroke:#ffffff;stroke-width:1px;stroke-linecap:butt;stroke-linejoin:miter;stroke-opacity:1"
       d="m 409.42505,375.21581 c 0,46.66667 0,90 0,135 0,2.05279 1.54244,5 3.59523,5 41.40477,0 136.40477,0 136.40477,0 l 0,-45 c 0,0 2.64298,-5 5,-5 4.71405,0 5.98999,7.52168 10,10 4.48332,2.77085 9.77617,5.69957 15,5 5.95608,-0.79763 12.16449,-4.7018 15,-10 6.29144,-11.75566 6.29144,-28.24434 0,-40 -2.83551,-5.2982 -9.04392,-9.20237 -15,-10 -5.22383,-0.69957 -10.51668,2.22915 -15,5 -4.01001,2.47832 -5.28595,10 -10,10 -2.35702,0 -5,-5 -5,-5 l 0,-55 -55,0 c 0,0 -5,2.64298 -5,5 0,4.71405 7.52168,5.98999 10,10 2.77085,4.48332 5.69957,9.77617 5,15 -0.79763,5.95608 -4.7018,12.16449 -10,15 -11.75566,6.29144 -28.24434,6.29144 -40,0 -5.2982,-2.83551 -9.20237,-9.04392 -10,-15 -0.69957,-5.22383 2.22915,-10.51668 5,-15 2.47832,-4.01001 10,-5.28595 10,-10 0,-2.35702 -5,-5 -5,-5 z"
       id="path2995-7"
       inkscape:connector-curvature="0"
       sodipodi:nodetypes="cssccaaaaaaaacccaaaaaaaacc" />
    <path
       style="fill:#f3835d;fill-opacity:1;stroke:#ffffff;stroke-width:1px;stroke-linecap:butt;stroke-linejoin:miter;stroke-opacity:1"
       d="m 549.42505,515.21581 c 46.66627,-0.19202 89.99924,-0.37033 134.99886,-0.5555 2.05277,-0.008 4.99361,-1.563 4.98516,-3.61577 -0.17037,-41.40442 -0.56128,-136.40361 -0.56128,-136.40361 l -44.99962,0.18516 c 0,0 -5.01083,-2.62238 -5.02053,-4.97938 -0.0194,-4.71401 7.49697,-6.02089 9.95877,-10.04106 2.75238,-4.49469 5.65929,-9.79954 4.93823,-15.02045 -0.82213,-5.95275 -4.75181,-12.14504 -10.06163,-14.95873 -11.78145,-6.24301 -28.26999,-6.17516 -39.99966,0.1646 -5.28649,2.85728 -9.16508,9.0817 -9.9382,15.04102 -0.67807,5.22666 2.27241,10.50741 5.06168,14.9793 2.4948,3.99977 10.02167,5.24475 10.04107,9.95876 0.01,2.357 -4.97939,5.02053 -4.97939,5.02053 l -54.99953,0.22632 0.22631,54.99953 c 0,0 2.66353,4.98909 5.02053,4.97939 4.71401,-0.0194 5.95899,-7.54627 9.95877,-10.04107 4.47188,-2.78927 9.75264,-5.73975 14.9793,-5.06168 5.95931,0.77312 12.18373,4.65171 15.04102,9.9382 6.33976,11.72967 6.40761,28.21821 0.16459,39.99966 -2.81368,5.30982 -9.00597,9.2395 -14.95872,10.06164 -5.22091,0.72105 -10.52577,-2.18586 -15.02045,-4.93824 -4.02017,-2.4618 -5.32705,-9.97816 -10.04106,-9.95877 -2.357,0.01 -4.97939,5.02053 -4.97939,5.02053 z"
       id="path2995-2-0"
       inkscape:connector-curvature="0"
       sodipodi:nodetypes="cssccaaaaaaaacccaaaaaaaacc" />
    <path
       style="fill:#f35955;fill-opacity:1;stroke:#ffffff;stroke-width:1px;stroke-linecap:butt;stroke-linejoin:miter;stroke-opacity:1"
       d="m 689.4222,374.32345 c -0.29745,-46.66572 -0.57365,-89.99817 -0.86048,-134.99724 -0.0131,-2.05276 -1.57428,-4.99007 -3.62702,-4.97699 -41.40393,0.26392 -136.402,0.86944 -136.402,0.86944 l 0.28683,44.99908 c 0,0 -2.61106,5.01674 -4.96803,5.03176 -4.71396,0.03 -6.03781,-7.48334 -10.06354,-9.93605 -4.50088,-2.74223 -9.8123,-5.63715 -15.03156,-4.90429 -5.95088,0.83557 -12.13427,4.77924 -14.93596,10.0954 -6.21638,11.79552 -6.11128,28.28387 0.25496,39.99918 2.86922,5.28002 9.10239,9.14455 15.06344,9.9042 5.22818,0.66626 10.50225,-2.29614 14.96783,-5.09551 3.99412,-2.50383 5.22209,-10.03349 9.93605,-10.06354 2.35697,-0.015 5.03177,4.96803 5.03177,4.96803 l 0.35056,54.99889 54.99889,-0.35057 c 0,0 4.98305,-2.6748 4.96803,-5.03177 -0.0301,-4.71395 -7.55971,-5.94193 -10.06354,-9.93606 -2.79937,-4.46556 -5.76176,-9.73964 -5.09551,-14.96782 0.75965,-5.96105 4.62417,-12.19422 9.90419,-15.06344 11.71531,-6.36624 28.20367,-6.47134 39.99918,-0.25495 5.31618,2.80167 9.25984,8.98507 10.09541,14.93595 0.73286,5.21926 -2.16207,10.53067 -4.90429,15.03156 -2.45271,4.02573 -9.9661,5.34959 -9.93606,10.06354 0.015,2.35698 5.03177,4.96803 5.03177,4.96803 z"
       id="path2995-1-3"
       inkscape:connector-curvature="0"
       sodipodi:nodetypes="cssccaaaaaaaacccaaaaaaaacc" />
    <path
       style="fill:#286275;fill-opacity:1;stroke:#ffffff;stroke-width:1px;stroke-linecap:butt;stroke-linejoin:miter;stroke-opacity:1"
       d="m 487.05065,233.2106 c -34.93848,-30.93673 -67.38133,-59.66369 -101.07199,-89.49553 -1.53689,-1.36086 -4.76594,-2.15986 -6.12681,-0.62297 -27.44846,30.99898 -90.4268,102.12371 -90.4268,102.12371 l 33.69066,29.83185 c 0,0 1.9913,5.29339 0.42876,7.05805 -3.12508,3.52932 -9.60228,-0.50175 -14.11611,0.85751 -5.04662,1.51966 -10.74808,3.54083 -13.68736,7.91557 -3.35129,4.98799 -4.54405,12.2243 -2.45714,17.85952 4.63047,12.50348 16.97524,23.43431 29.94727,26.51721 5.84641,1.38943 12.88513,-0.67049 17.43076,-4.60092 3.98679,-3.44723 5.3029,-9.35142 6.20055,-14.54488 0.80288,-4.64516 -3.9826,-10.58679 -0.85752,-14.11611 1.56254,-1.76466 7.05806,-0.42876 7.05806,-0.42876 l 41.17748,36.46115 36.46115,-41.17748 c 0,0 1.33589,-5.49552 -0.42877,-7.05805 -3.52931,-3.12509 -9.47089,1.66062 -14.11611,0.8575 -5.19346,-0.89764 -11.09765,-2.21374 -14.54486,-6.20053 -3.93044,-4.54564 -5.99038,-11.58437 -4.60093,-17.43077 3.08289,-12.97202 14.01374,-25.31678 26.51719,-29.94725 5.63523,-2.08691 12.87155,-0.89416 17.85952,2.45714 4.37476,2.93927 6.39589,8.64073 7.91558,13.68735 1.35926,4.51383 -2.67181,10.99102 0.85751,14.11611 1.76466,1.56253 7.05806,-0.42875 7.05806,-0.42875 z"
       id="path2995-10-9"
       inkscape:connector-curvature="0"
       sodipodi:nodetypes="cssccaaaaaaaacccaaaaaaaacc" />
  </g>
  <g
     style="display:inline"
     inkscape:label="Pastel Box"
     id="g3003"
     inkscape:groupmode="layer"
     transform="translate(0,-565)">
    <g
       id="g3008"
       transform="matrix(0.52570234,0,0,0.52570234,-72.200935,461.36102)">
      <path
         style="fill:#eca02f;fill-opacity:1;stroke:#ffffff;stroke-width:1px;stroke-linecap:butt;stroke-linejoin:miter;stroke-opacity:0"
         d="m 220.66845,435.21619 c 0,46.66667 0,90 0,135 0,2.05279 1.54244,5 3.59523,5 41.40477,0 136.40477,0 136.40477,0 l 0,-45 c 0,0 2.64298,-5 5,-5 4.71405,0 5.98999,7.52168 10,10 4.48332,2.77085 9.77617,5.69957 15,5 5.95608,-0.79763 12.16449,-4.7018 15,-10 6.29144,-11.75566 6.29144,-28.24434 0,-40 -2.83551,-5.2982 -9.04392,-9.20237 -15,-10 -5.22383,-0.69957 -10.51668,2.22915 -15,5 -4.01001,2.47832 -5.28595,10 -10,10 -2.35702,0 -5,-5 -5,-5 l 0,-55 -55,0 c 0,0 -5,2.64298 -5,5 0,4.71405 7.52168,5.98999 10,10 2.77085,4.48332 5.69957,9.77617 5,15 -0.79763,5.95608 -4.7018,12.16449 -10,15 -11.75566,6.29144 -28.24434,6.29144 -40,0 -5.2982,-2.83551 -9.20237,-9.04392 -10,-15 -0.69957,-5.22383 2.22915,-10.51668 5,-15 2.47832,-4.01001 10,-5.28595 10,-10 0,-2.35702 -5,-5 -5,-5 z"
         id="path3005"
         inkscape:connector-curvature="0"
         sodipodi:nodetypes="cssccaaaaaaaacccaaaaaaaacc" />
      <path
         style="fill:#81aa52;fill-opacity:1;stroke:#ffffff;stroke-width:1px;stroke-linecap:butt;stroke-linejoin:miter;stroke-opacity:0"
         d="m 360.85362,575.21581 c 46.66627,-0.19202 89.99924,-0.37033 134.99886,-0.5555 2.05277,-0.008 4.99361,-1.563 4.98516,-3.61577 -0.17037,-41.40442 -0.56128,-136.40361 -0.56128,-136.40361 l -44.99962,0.18516 c 0,0 -5.01083,-2.62238 -5.02053,-4.97938 -0.0194,-4.71401 7.49697,-6.02089 9.95877,-10.04106 2.75238,-4.49469 5.65929,-9.79954 4.93823,-15.02045 -0.82213,-5.95275 -4.75181,-12.14504 -10.06163,-14.95873 -11.78145,-6.24301 -28.26999,-6.17516 -39.99966,0.1646 -5.28649,2.85728 -9.16508,9.0817 -9.9382,15.04102 -0.67807,5.22666 2.27241,10.50741 5.06168,14.9793 2.4948,3.99977 10.02167,5.24475 10.04107,9.95876 0.01,2.357 -4.97939,5.02053 -4.97939,5.02053 l -54.99953,0.22632 0.22631,54.99953 c 0,0 2.66353,4.98909 5.02053,4.97939 4.71401,-0.0194 5.95899,-7.54627 9.95877,-10.04107 4.47188,-2.78927 9.75264,-5.73975 14.9793,-5.06168 5.95931,0.77312 12.18373,4.65171 15.04102,9.9382 6.33976,11.72967 6.40761,28.21821 0.16459,39.99966 -2.81368,5.30982 -9.00597,9.2395 -14.95872,10.06164 -5.22091,0.72105 -10.52577,-2.18586 -15.02045,-4.93824 -4.02017,-2.4618 -5.32705,-9.97816 -10.04106,-9.95877 -2.357,0.01 -4.97939,5.02053 -4.97939,5.02053 z"
         id="path3007"
         inkscape:connector-curvature="0"
         sodipodi:nodetypes="cssccaaaaaaaacccaaaaaaaacc" />
      <path
         style="fill:#d52d26;fill-opacity:1;stroke:#ffffff;stroke-width:1px;stroke-linecap:butt;stroke-linejoin:miter;stroke-opacity:0"
         d="m 500.27582,434.53926 c -0.29745,-46.66572 -0.57365,-89.99817 -0.86048,-134.99724 -0.0131,-2.05276 -1.57428,-4.99007 -3.62702,-4.97699 -41.40393,0.26392 -136.402,0.86944 -136.402,0.86944 l 0.28683,44.99908 c 0,0 -2.61106,5.01674 -4.96803,5.03176 -4.71396,0.03 -6.03781,-7.48334 -10.06354,-9.93605 -4.50088,-2.74223 -9.8123,-5.63715 -15.03156,-4.90429 -5.95088,0.83557 -12.13427,4.77924 -14.93596,10.0954 -6.21638,11.79552 -6.11128,28.28387 0.25496,39.99918 2.86922,5.28002 9.10239,9.14455 15.06344,9.9042 5.22818,0.66626 10.50225,-2.29614 14.96783,-5.09551 3.99412,-2.50383 5.22209,-10.03349 9.93605,-10.06354 2.35697,-0.015 5.03177,4.96803 5.03177,4.96803 l 0.35056,54.99889 54.99889,-0.35057 c 0,0 4.98305,-2.6748 4.96803,-5.03177 -0.0301,-4.71395 -7.55971,-5.94193 -10.06354,-9.93606 -2.79937,-4.46556 -5.76176,-9.73964 -5.09551,-14.96782 0.75965,-5.96105 4.62417,-12.19422 9.90419,-15.06344 11.71531,-6.36624 28.20367,-6.47134 39.99918,-0.25495 5.31618,2.80167 9.25984,8.98507 10.09541,14.93595 0.73286,5.21926 -2.16207,10.53067 -4.90429,15.03156 -2.45271,4.02573 -9.9661,5.34959 -9.93606,10.06354 0.015,2.35698 5.03177,4.96803 5.03177,4.96803 z"
         id="path3009"
         inkscape:connector-curvature="0"
         sodipodi:nodetypes="cssccaaaaaaaacccaaaaaaaacc" />
      <path
         style="fill:#2089a4;fill-opacity:1;stroke:#ffffff;stroke-width:1px;stroke-linecap:butt;stroke-linejoin:miter;stroke-opacity:0"
         d="M 342.54096,280.07365 C 304.32393,253.29236 268.83672,228.42402 231.9846,202.5992 c -1.68111,-1.17807 -4.97986,-1.60627 -6.15794,0.0748 -23.76157,33.90786 -78.28063,111.70677 -78.28063,111.70677 l 36.85211,25.82482 c 0,0 2.57792,5.03385 1.22526,6.9641 -2.70531,3.8605 -9.59733,0.58884 -13.9282,2.4505 -4.84207,2.08137 -10.27798,4.73517 -12.70296,9.41462 -2.76489,5.3354 -3.13054,12.66024 -0.41892,18.02289 6.01658,11.89869 19.51976,21.36129 32.75746,22.9554 5.96614,0.71844 12.72632,-2.12529 16.79763,-6.54519 3.57078,-3.87652 4.20983,-9.89177 4.5136,-15.15347 0.27169,-4.7062 -5.15584,-10.0677 -2.45052,-13.92821 1.35266,-1.93025 6.96411,-1.22525 6.96411,-1.22525 l 45.04148,31.56367 31.56367,-45.04148 c 0,0 0.70498,-5.61145 -1.22527,-6.9641 -3.86049,-2.70533 -9.22192,2.72242 -13.92821,2.4505 -5.2617,-0.30376 -11.27695,-0.9428 -15.15345,-4.51359 -4.4199,-4.07131 -7.26366,-10.8315 -6.5452,-16.79764 1.59411,-13.23768 11.05672,-26.74085 22.95539,-32.75743 5.36266,-2.71162 12.6875,-2.34598 18.02289,0.41892 4.67946,2.42497 7.33323,7.86088 9.41462,12.70295 1.86167,4.33087 -1.41,11.22287 2.45051,13.9282 1.93025,1.35265 6.96411,-1.22525 6.96411,-1.22525 z"
         id="path3011"
         inkscape:connector-curvature="0"
         sodipodi:nodetypes="cssccaaaaaaaacccaaaaaaaacc" />
    </g>
  </g>
  <g
     inkscape:groupmode="layer"
     id="layer3"
     inkscape:label="Autumn"
     style="display:none"
     transform="translate(0,-565)">
    <path
       style="fill:#ff6a01;fill-opacity:1;stroke:#ffffff;stroke-width:1px;stroke-linecap:butt;stroke-linejoin:miter;stroke-opacity:1;display:inline"
       d="m 409.42505,375.21581 c 0,46.66667 0,90 0,135 0,2.05279 1.54244,5 3.59523,5 41.40477,0 136.40477,0 136.40477,0 l 0,-45 c 0,0 2.64298,-5 5,-5 4.71405,0 5.98999,7.52168 10,10 4.48332,2.77085 9.77617,5.69957 15,5 5.95608,-0.79763 12.16449,-4.7018 15,-10 6.29144,-11.75566 6.29144,-28.24434 0,-40 -2.83551,-5.2982 -9.04392,-9.20237 -15,-10 -5.22383,-0.69957 -10.51668,2.22915 -15,5 -4.01001,2.47832 -5.28595,10 -10,10 -2.35702,0 -5,-5 -5,-5 l 0,-55 -55,0 c 0,0 -5,2.64298 -5,5 0,4.71405 7.52168,5.98999 10,10 2.77085,4.48332 5.69957,9.77617 5,15 -0.79763,5.95608 -4.7018,12.16449 -10,15 -11.75566,6.29144 -28.24434,6.29144 -40,0 -5.2982,-2.83551 -9.20237,-9.04392 -10,-15 -0.69957,-5.22383 2.22915,-10.51668 5,-15 2.47832,-4.01001 10,-5.28595 10,-10 0,-2.35702 -5,-5 -5,-5 z"
       id="path2995-7-3"
       inkscape:connector-curvature="0"
       sodipodi:nodetypes="cssccaaaaaaaacccaaaaaaaacc" />
    <path
       style="fill:#ffa62e;fill-opacity:1;stroke:#ffffff;stroke-width:1px;stroke-linecap:butt;stroke-linejoin:miter;stroke-opacity:1;display:inline"
       d="m 549.42505,515.21581 c 46.66627,-0.19202 89.99924,-0.37033 134.99886,-0.5555 2.05277,-0.008 4.99361,-1.563 4.98516,-3.61577 -0.17037,-41.40442 -0.56128,-136.40361 -0.56128,-136.40361 l -44.99962,0.18516 c 0,0 -5.01083,-2.62238 -5.02053,-4.97938 -0.0194,-4.71401 7.49697,-6.02089 9.95877,-10.04106 2.75238,-4.49469 5.65929,-9.79954 4.93823,-15.02045 -0.82213,-5.95275 -4.75181,-12.14504 -10.06163,-14.95873 -11.78145,-6.24301 -28.26999,-6.17516 -39.99966,0.1646 -5.28649,2.85728 -9.16508,9.0817 -9.9382,15.04102 -0.67807,5.22666 2.27241,10.50741 5.06168,14.9793 2.4948,3.99977 10.02167,5.24475 10.04107,9.95876 0.01,2.357 -4.97939,5.02053 -4.97939,5.02053 l -54.99953,0.22632 0.22631,54.99953 c 0,0 2.66353,4.98909 5.02053,4.97939 4.71401,-0.0194 5.95899,-7.54627 9.95877,-10.04107 4.47188,-2.78927 9.75264,-5.73975 14.9793,-5.06168 5.95931,0.77312 12.18373,4.65171 15.04102,9.9382 6.33976,11.72967 6.40761,28.21821 0.16459,39.99966 -2.81368,5.30982 -9.00597,9.2395 -14.95872,10.06164 -5.22091,0.72105 -10.52577,-2.18586 -15.02045,-4.93824 -4.02017,-2.4618 -5.32705,-9.97816 -10.04106,-9.95877 -2.357,0.01 -4.97939,5.02053 -4.97939,5.02053 z"
       id="path2995-2-0-0"
       inkscape:connector-curvature="0"
       sodipodi:nodetypes="cssccaaaaaaaacccaaaaaaaacc" />
    <path
       style="fill:#757e00;fill-opacity:1;stroke:#ffffff;stroke-width:1px;stroke-linecap:butt;stroke-linejoin:miter;stroke-opacity:1;display:inline"
       d="m 689.4222,374.32345 c -0.29745,-46.66572 -0.57365,-89.99817 -0.86048,-134.99724 -0.0131,-2.05276 -1.57428,-4.99007 -3.62702,-4.97699 -41.40393,0.26392 -136.402,0.86944 -136.402,0.86944 l 0.28683,44.99908 c 0,0 -2.61106,5.01674 -4.96803,5.03176 -4.71396,0.03 -6.03781,-7.48334 -10.06354,-9.93605 -4.50088,-2.74223 -9.8123,-5.63715 -15.03156,-4.90429 -5.95088,0.83557 -12.13427,4.77924 -14.93596,10.0954 -6.21638,11.79552 -6.11128,28.28387 0.25496,39.99918 2.86922,5.28002 9.10239,9.14455 15.06344,9.9042 5.22818,0.66626 10.50225,-2.29614 14.96783,-5.09551 3.99412,-2.50383 5.22209,-10.03349 9.93605,-10.06354 2.35697,-0.015 5.03177,4.96803 5.03177,4.96803 l 0.35056,54.99889 54.99889,-0.35057 c 0,0 4.98305,-2.6748 4.96803,-5.03177 -0.0301,-4.71395 -7.55971,-5.94193 -10.06354,-9.93606 -2.79937,-4.46556 -5.76176,-9.73964 -5.09551,-14.96782 0.75965,-5.96105 4.62417,-12.19422 9.90419,-15.06344 11.71531,-6.36624 28.20367,-6.47134 39.99918,-0.25495 5.31618,2.80167 9.25984,8.98507 10.09541,14.93595 0.73286,5.21926 -2.16207,10.53067 -4.90429,15.03156 -2.45271,4.02573 -9.9661,5.34959 -9.93606,10.06354 0.015,2.35698 5.03177,4.96803 5.03177,4.96803 z"
       id="path2995-1-3-8"
       inkscape:connector-curvature="0"
       sodipodi:nodetypes="cssccaaaaaaaacccaaaaaaaacc" />
    <path
       style="fill:#ff2603;fill-opacity:1;stroke:#ffffff;stroke-width:1px;stroke-linecap:butt;stroke-linejoin:miter;stroke-opacity:1;display:inline"
       d="m 487.05065,233.2106 c -34.93848,-30.93673 -67.38133,-59.66369 -101.07199,-89.49553 -1.53689,-1.36086 -4.76594,-2.15986 -6.12681,-0.62297 -27.44846,30.99898 -90.4268,102.12371 -90.4268,102.12371 l 33.69066,29.83185 c 0,0 1.9913,5.29339 0.42876,7.05805 -3.12508,3.52932 -9.60228,-0.50175 -14.11611,0.85751 -5.04662,1.51966 -10.74808,3.54083 -13.68736,7.91557 -3.35129,4.98799 -4.54405,12.2243 -2.45714,17.85952 4.63047,12.50348 16.97524,23.43431 29.94727,26.51721 5.84641,1.38943 12.88513,-0.67049 17.43076,-4.60092 3.98679,-3.44723 5.3029,-9.35142 6.20055,-14.54488 0.80288,-4.64516 -3.9826,-10.58679 -0.85752,-14.11611 1.56254,-1.76466 7.05806,-0.42876 7.05806,-0.42876 l 41.17748,36.46115 36.46115,-41.17748 c 0,0 1.33589,-5.49552 -0.42877,-7.05805 -3.52931,-3.12509 -9.47089,1.66062 -14.11611,0.8575 -5.19346,-0.89764 -11.09765,-2.21374 -14.54486,-6.20053 -3.93044,-4.54564 -5.99038,-11.58437 -4.60093,-17.43077 3.08289,-12.97202 14.01374,-25.31678 26.51719,-29.94725 5.63523,-2.08691 12.87155,-0.89416 17.85952,2.45714 4.37476,2.93927 6.39589,8.64073 7.91558,13.68735 1.35926,4.51383 -2.67181,10.99102 0.85751,14.11611 1.76466,1.56253 7.05806,-0.42875 7.05806,-0.42875 z"
       id="path2995-10-9-4"
       inkscape:connector-curvature="0"
       sodipodi:nodetypes="cssccaaaaaaaacccaaaaaaaacc" />
  </g>
</svg>
